<?xml version="1.0" encoding="UTF-8"?>
<svg xmlns="http://www.w3.org/2000/svg" id="Layer_1" data-name="Layer 1" viewBox="0 0 24 24">
  <path d="M15.297,7.211c-.393-.388-.396-1.021-.009-1.414,.39-.394,1.021-.396,1.415-.009l1.297,1.281V1c0-.552,.447-1,1-1s1,.448,1,1V7.052l1.303-1.268c.395-.386,1.027-.377,1.414,.019,.385,.396,.377,1.029-.02,1.414l-2.236,2.177c-.815,.814-2.148,.806-2.964-.009l-2.2-2.173Zm8.703,3.789v10c0,1.654-1.346,3-3,3H5c-2.757,0-5-2.243-5-5V9C-.011,6.285,2.222,3.995,5,4h7c.553,0,1,.448,1,1s-.447,1-1,1H5c-.887,0-1.686,.387-2.235,1.001,.563,.627,1.376,.999,2.235,.999H13.416c.131,.226,.281,.442,.475,.634l2.192,2.166c1.504,1.578,4.271,1.589,5.772,.027l1.592-1.55c.345,.489,.552,1.081,.552,1.723Zm-4,5c0-.828-.672-1.5-1.5-1.5s-1.5,.672-1.5,1.5,.672,1.5,1.5,1.5,1.5-.672,1.5-1.5Z"/>
</svg>
