<svg id="Layer_1" viewBox="0 0 24 24" xmlns="http://www.w3.org/2000/svg" data-name="Layer 1"><path d="m15 6c0 3.309-2.691 6-6 6s-6-2.691-6-6 2.691-6 6-6 6 2.691 6 6zm2 16h-1c-.552 0-1-.449-1-1v-6c0-.551.448-1 1-1h1c.553 0 1-.448 1-1s-.447-1-1-1h-1c-1.654 0-3 1.346-3 3v6c0 1.654 1.346 3 3 3h1c.553 0 1-.448 1-1s-.447-1-1-1zm6.404-5.245-2.207-1.946c-.411-.363-1.046-.326-1.411.089-.365.414-.325 1.046.089 1.411l.783.691h-2.658c-.553 0-1 .448-1 1s.447 1 1 1h2.792l-.917.809c-.414.365-.454.997-.089 1.411.366.416.999.453 1.411.089l2.199-1.939c.384-.331.604-.809.604-1.311s-.22-.98-.596-1.304zm-12.404-1.755c0-.256.038-.503.076-.749-.668-.158-1.36-.251-2.076-.251-4.963 0-9 4.038-9 9 0 .552.447 1 1 1h11.026c-.635-.838-1.026-1.87-1.026-3z"/></svg>