<?xml version="1.0" encoding="UTF-8"?>
<svg xmlns="http://www.w3.org/2000/svg" id="Layer_1" data-name="Layer 1" viewBox="0 0 24 24">
  <path d="m24,19c0,1.657-1.343,3-3,3s-3-1.343-3-3,1.343-3,3-3,3,1.343,3,3Zm0-8v3h-2.828c-1.273,0-2.492.543-3.344,1.49l-3.16,3.51h-6.668c0,1.657-1.343,3-3,3s-3-1.343-3-3H0v-6.5c0-2.481,2.019-4.5,4.5-4.5h3.539l3,8h2.293l2.266-2.517c.338-.375.712-.709,1.112-1.005l-2.755-7.478h-2.954v-3h5.046l1.156,3.139c.323-.672,1.003-1.139,1.798-1.139h1v4h-1c-.288,0-.56-.063-.807-.173l1.247,3.384c.564-.134,1.144-.211,1.733-.211h2.828ZM3,16h4.836l-1.875-5h-1.461c-.827,0-1.5.673-1.5,1.5v3.5Z"/>
</svg>
