<?xml version="1.0" encoding="UTF-8"?>
<svg xmlns="http://www.w3.org/2000/svg" id="Layer_1" data-name="Layer 1" viewBox="0 0 24 24">
  <path d="M11,22.5c0,.828-.672,1.5-1.5,1.5H5.5c-3.032,0-5.5-2.468-5.5-5.5V7.5C0,5.368,1.222,3.52,3,2.607V1.5c0-.829,.672-1.5,1.5-1.5s1.5,.671,1.5,1.5v.5h2.5v-.5c0-.829,.672-1.5,1.5-1.5s1.5,.671,1.5,1.5v.5h2.5v-.5c0-.829,.672-1.5,1.5-1.5s1.5,.671,1.5,1.5v1.107c1.778,.912,3,2.761,3,4.893v1c0,.829-.672,1.5-1.5,1.5s-1.5-.671-1.5-1.5v-1c0-1.378-1.121-2.5-2.5-2.5H5.5c-1.379,0-2.5,1.122-2.5,2.5v11c0,1.379,1.121,2.5,2.5,2.5h4c.828,0,1.5,.672,1.5,1.5Zm-1.5-10.5h-3c-.828,0-1.5,.671-1.5,1.5s.672,1.5,1.5,1.5h3c.828,0,1.5-.672,1.5-1.5s-.672-1.5-1.5-1.5Zm-3-5c-.828,0-1.5,.671-1.5,1.5s.672,1.5,1.5,1.5h7c.828,0,1.5-.671,1.5-1.5s-.672-1.5-1.5-1.5H6.5Zm17.5,11c0,3.314-2.686,6-6,6s-6-2.686-6-6,2.686-6,6-6,6,2.686,6,6Zm-2.288-1.702c-.383-.399-1.017-.41-1.414-.029l-2.713,2.624c-.143,.141-.379,.144-.522,.002l-1.354-1.331c-.396-.388-1.028-.381-1.414,.014-.387,.395-.381,1.027,.014,1.414l1.354,1.332c.46,.449,1.062,.674,1.663,.674s1.201-.225,1.653-.671l2.703-2.614c.398-.383,.411-1.016,.029-1.414Z"/>
</svg>
